<?xml version="1.0" encoding="utf-8"?>
<!-- Generator: Adobe Illustrator 24.1.2, SVG Export Plug-In . SVG Version: 6.00 Build 0)  -->
<svg version="1.1" xmlns="http://www.w3.org/2000/svg" xmlns:xlink="http://www.w3.org/1999/xlink" x="0px" y="0px"
	 viewBox="0 0 589.3 589.2" style="enable-background:new 0 0 589.3 589.2;" xml:space="preserve">
<style type="text/css">
	.st0{display:none;}
	.st1{display:inline;fill:#0C0C0C;}
	.st2{fill:#FFFFFF;}
	.st3{fill:url(#SVGID_1_);}
	.st4{fill:url(#SVGID_2_);}
	.st5{fill:url(#SVGID_3_);}
	.st6{fill:url(#SVGID_4_);}
	.st7{fill:#E95E65;}
</style>
<g id="Layer_2" class="st0">
	<rect x="-78" y="-62.1" class="st1" width="747.3" height="726"/>
</g>
<g id="Layer_1">
	<g id="Layer_2_1_">
		<g id="Layer_3_1_">
			<g>
				<g>
					<path class="st2" d="M588.4,115.9c-0.2-0.6-0.4-1.4-0.9-1.9c-0.5-1.5-1.3-2.9-2-4.2c-0.4-0.6-0.9-1.4-1.4-1.9
						c-1-1.3-2-2.3-3.2-3.3c-0.5-0.4-1.1-1.1-1.6-1.5c-0.1-0.1-0.3-0.2-0.4-0.3c-1.7-1.2-3.5-2.1-5.5-2.9c-0.1,0-0.1-0.1-0.2-0.1
						L303.2,1.4c-5.4-1.9-11.4-1.9-16.8,0l-270,98.2c-0.1,0-0.1,0.1-0.2,0.1c-1.9,0.6-3.8,1.7-5.5,2.9c-0.1,0.1-0.3,0.2-0.4,0.3
						c-0.5,0.4-1.1,1-1.6,1.5c-1.2,1.1-2.3,2.1-3.2,3.3c-0.4,0.5-1,1.3-1.4,1.9c-0.9,1.4-1.5,2.7-2,4.2c-0.2,0.6-0.5,1.3-0.9,1.9
						C0.4,118,0,120.3,0,122.6v343.7c0,10.4,6.4,19.5,16.1,23.2l270,98.2c0.1,0,0.3,0,0.5,0.1c2.6,0.9,5.1,1.4,7.8,1.4
						s5.3-0.4,7.8-1.4c0.1-0.1,0.3,0,0.5-0.1l270.4-98.2c9.7-3.5,16.1-12.8,16.1-23.2V122.7C589.4,120.3,589,118.1,588.4,115.9z
						 M294.8,194.8L96.7,122.7l198.2-72.2l198.2,72L294.8,194.8z M540.3,449.1l-220.9,80.4V238l220.9-80.4V449.1z"/>
				</g>
			</g>
		</g>
	</g>
	<g id="Layer_1_2_">
		<g id="Layer_1_1_">
		</g>
		<g id="Layer_2_2_">
			<g>
				<g>
					<g>
						
							<linearGradient id="SVGID_1_" gradientUnits="userSpaceOnUse" x1="411.9667" y1="435.3503" x2="411.9667" y2="823.6503" gradientTransform="matrix(1 0 0 1 0 -292.8849)">
							<stop  offset="0" style="stop-color:#F47EBD"/>
							<stop  offset="1" style="stop-color:#F2C89A"/>
						</linearGradient>
						<path class="st3" d="M294.7,231.9v298.9l220.6-80.2c8.4-3.1,14-11.1,14-20.1v-288L294.7,231.9z"/>
						
							<linearGradient id="SVGID_2_" gradientUnits="userSpaceOnUse" x1="412.3667" y1="431.0504" x2="412.3667" y2="819.3503" gradientTransform="matrix(1 0 0 1 0 -292.8849)">
							<stop  offset="0" style="stop-color:#F47EBD"/>
							<stop  offset="1" style="stop-color:#F2C89A"/>
						</linearGradient>
						<path class="st4" d="M295.1,227.6v298.9l220.6-80.2c8.4-3.1,14-11.1,14-20.1v-288L295.1,227.6z"/>
						
							<linearGradient id="SVGID_3_" gradientUnits="userSpaceOnUse" x1="412.6667" y1="427.3503" x2="412.6667" y2="815.6503" gradientTransform="matrix(1 0 0 1 0 -292.8849)">
							<stop  offset="0" style="stop-color:#F47EBD"/>
							<stop  offset="1" style="stop-color:#F2C89A"/>
						</linearGradient>
						<path class="st5" d="M295.4,223.9v298.9L516,442.6c8.4-3.1,14-11.1,14-20.1v-288L295.4,223.9z"/>
						
							<linearGradient id="SVGID_4_" gradientUnits="userSpaceOnUse" x1="243.7167" y1="336.3905" x2="358.2166" y2="534.7103" gradientTransform="matrix(1 0 0 1 0 -292.8849)">
							<stop  offset="0" style="stop-color:#2A9BC5"/>
							<stop  offset="1" style="stop-color:#2E58A6"/>
						</linearGradient>
						<path class="st6" d="M308.3,64.8c-4.7-1.6-9.9-1.6-14.6,0L72,142.7L301,227l229-84.3L308.3,64.8z"/>
						<path class="st7" d="M39.1,443.9c0,9,5.6,17,14,20.1l220.6,80.2V245.3L39.1,155.9V443.9z"/>
					</g>
				</g>
			</g>
		</g>
		<g id="Layer_3">
			<g>
				<g>
					<path d="M550.2,139.4c-0.2-0.6-0.4-1.2-0.7-1.7c-0.5-1.3-1.1-2.5-1.8-3.6c-0.4-0.6-0.7-1.2-1.2-1.7c-0.8-1.1-1.8-2-2.8-2.9
						c-0.5-0.4-0.9-0.9-1.4-1.3c-0.1-0.1-0.3-0.2-0.4-0.3c-1.5-1-3.1-1.9-4.8-2.5c-0.1,0-0.1-0.1-0.2-0.1L302.4,39.9
						c-4.7-1.7-9.9-1.7-14.6,0L53.1,125.2c-0.1,0-0.1,0.1-0.2,0.1c-1.7,0.6-3.3,1.5-4.8,2.5c-0.1,0.1-0.3,0.2-0.4,0.3
						c-0.5,0.4-0.9,0.8-1.4,1.3c-1,0.9-2,1.9-2.8,2.9c-0.4,0.5-0.8,1.1-1.2,1.7c-0.7,1.2-1.3,2.3-1.8,3.6c-0.2,0.6-0.5,1.1-0.7,1.7
						c-0.6,1.9-0.9,3.9-0.9,5.9v298.7c0,9,5.6,17,14,20.1l234.7,85.3c0.1,0,0.3,0,0.5,0.1c2.2,0.7,4.5,1.2,6.8,1.2s4.6-0.4,6.8-1.2
						c0.1-0.1,0.3,0,0.5-0.1L537.1,464c8.4-3.1,14-11.1,14-20.1V145.3C551.1,143.2,550.7,141.3,550.2,139.4z M295.1,207.9
						l-172.2-62.6l172.2-62.7l172.2,62.6L295.1,207.9z M508.4,429l-192,69.8V245.5l192-69.8V429z"/>
				</g>
			</g>
		</g>
	</g>
</g>
</svg>
