<?xml version="1.0" encoding="utf-8"?>
<!-- Generator: Adobe Illustrator 24.1.2, SVG Export Plug-In . SVG Version: 6.00 Build 0)  -->
<svg version="1.1" xmlns="http://www.w3.org/2000/svg" xmlns:xlink="http://www.w3.org/1999/xlink" x="0px" y="0px"
	 viewBox="0 0 414.7 367.7" style="enable-background:new 0 0 414.7 367.7;" xml:space="preserve">
<style type="text/css">
	.st0{display:none;}
	.st1{fill:url(#SVGID_1_);}
	.st2{fill:url(#SVGID_2_);}
	.st3{fill:url(#SVGID_3_);}
	.st4{display:inline;fill:url(#SVGID_4_);}
	.st5{display:inline;}
	.st6{display:none;fill:url(#SVGID_5_);}
	.st7{display:none;fill:url(#SVGID_6_);}
	.st8{display:none;fill:url(#SVGID_7_);}
	.st9{fill:url(#SVGID_8_);}
	.st10{display:none;fill:url(#SVGID_9_);}
	.st11{fill:url(#SVGID_10_);}
	.st12{display:none;fill:url(#SVGID_11_);}
	.st13{fill:url(#SVGID_12_);}
	.st14{fill:url(#SVGID_13_);}
</style>
<g id="Layer_1" class="st0">
	<g>
		
			<linearGradient id="SVGID_1_" gradientUnits="userSpaceOnUse" x1="-622.7487" y1="1065.7556" x2="-30.0007" y2="1065.7556" gradientTransform="matrix(6.123234e-17 -1 1 6.123234e-17 -1287.3005 -141.1711)">
			<stop  offset="0" style="stop-color:#FFF000"/>
			<stop  offset="0" style="stop-color:#F2C89A"/>
			<stop  offset="0.2682" style="stop-color:#F2C89A"/>
			<stop  offset="0.7678" style="stop-color:#F47EBD"/>
			<stop  offset="1" style="stop-color:#2386CD"/>
		</linearGradient>
		<path class="st1" d="M-363.8-162c6.1,110.5,85.1,262,85.1,447.1c0.2,106.7-14.4,165.3-27.5,196.5h225.9
			c7.2-40.4-23.5-99.8-73.3-180.1C-223,189.8-193,51.2-132.9-90.3c12.4-29.3,17.2-52.7,16.7-71.7H-363.8z"/>
		
			<linearGradient id="SVGID_2_" gradientUnits="userSpaceOnUse" x1="-518.5187" y1="983.129" x2="125.0117" y2="983.129" gradientTransform="matrix(6.123234e-17 -1 1 6.123234e-17 -1287.3005 -141.1711)">
			<stop  offset="0" style="stop-color:#FFF000"/>
			<stop  offset="0" style="stop-color:#F2C89A"/>
			<stop  offset="0" style="stop-color:#F2C89A"/>
			<stop  offset="0.2371" style="stop-color:#F47EBD"/>
			<stop  offset="1" style="stop-color:#2386CD"/>
		</linearGradient>
		<path class="st2" d="M-280.3-162c-29.3,48.1-76.3,107.5-130,174.5C-509.8,136.1-320,243.4-253,370c27.3,51.6,1.6,87.2-38.4,111.5
			h118C-145.8,380.7-286.4,201.3-320,87C-346-1-296.8-89-253-162H-280.3z"/>
		
			<linearGradient id="SVGID_3_" gradientUnits="userSpaceOnUse" x1="-705.6464" y1="1022.4769" x2="-62.116" y2="1022.4769" gradientTransform="matrix(6.123234e-17 -1 1 6.123234e-17 -1287.3005 -141.1711)">
			<stop  offset="0" style="stop-color:#FFF000"/>
			<stop  offset="0" style="stop-color:#F2C89A"/>
			<stop  offset="0" style="stop-color:#F2C89A"/>
			<stop  offset="0.7232" style="stop-color:#F47EBD"/>
			<stop  offset="1" style="stop-color:#2386CD"/>
		</linearGradient>
		<path class="st3" d="M-407.6-162c106.7,83.7,305.1,207.4,267.6,308.5c-74.9,203.1-195.2,249.5-180.3,335h114.9
			c-15.3-35.6-19.2-88.2,14.7-163.7C-112.2,142.1-88.9,97.4-186-8.3C-240.6-67.7-286.8-117.1-308.7-162H-407.6z"/>
		
			<linearGradient id="SVGID_4_" gradientUnits="userSpaceOnUse" x1="-1020.2406" y1="1050.1095" x2="35.7728" y2="1050.1095" gradientTransform="matrix(-0.1633 0.8639 -0.978 -0.1848 622.3404 629.753)">
			<stop  offset="0" style="stop-color:#FFF000"/>
			<stop  offset="0" style="stop-color:#F2C89A"/>
			<stop  offset="0.3687" style="stop-color:#F2C89A"/>
			<stop  offset="0.617" style="stop-color:#F47EBD"/>
			<stop  offset="1" style="stop-color:#2386CD"/>
		</linearGradient>
		<path class="st4" d="M-180.1,464.8c-103.1-72.1-104-65.8-212.5-149.1c-41.9-32-109.4-84.8-101.7-144.2
			c9.1-76.9,138.7-233.9,347.1-339.7h-321c-66,114.3-138,344.3-112,411.3c16,41,41.1,82.6,59,105c21.3,28.4,87.4,103.8,104.7,116.7
			H-180.1z"/>
	</g>
	<g class="st5">
		
			<linearGradient id="SVGID_5_" gradientUnits="userSpaceOnUse" x1="-636.4779" y1="1096.4309" x2="-43.7299" y2="1096.4309" gradientTransform="matrix(6.123234e-17 -1 1 6.123234e-17 -1287.3005 -141.1711)">
			<stop  offset="0" style="stop-color:#FFF000"/>
			<stop  offset="0" style="stop-color:#F2C89A"/>
			<stop  offset="0.2682" style="stop-color:#F2C89A"/>
			<stop  offset="0.7678" style="stop-color:#F47EBD"/>
			<stop  offset="1" style="stop-color:#2386CD"/>
		</linearGradient>
		<path class="st6" d="M-333.1-148.2c6.1,110.5,85.1,262,85.1,447.1c0.2,106.7-14.4,165.3-27.5,196.5h225.9
			c7.2-40.4-23.5-99.8-73.3-180.1c-69.3-111.7-39.3-250.3,20.8-391.7c12.4-29.3,17.2-52.7,16.7-71.7H-333.1z"/>
		
			<linearGradient id="SVGID_6_" gradientUnits="userSpaceOnUse" x1="-532.2479" y1="1013.8043" x2="111.2825" y2="1013.8043" gradientTransform="matrix(6.123234e-17 -1 1 6.123234e-17 -1287.3005 -141.1711)">
			<stop  offset="0" style="stop-color:#FFF000"/>
			<stop  offset="0" style="stop-color:#F2C89A"/>
			<stop  offset="0" style="stop-color:#F2C89A"/>
			<stop  offset="0.2371" style="stop-color:#F47EBD"/>
			<stop  offset="1" style="stop-color:#2386CD"/>
		</linearGradient>
		<path class="st7" d="M-249.6-148.2c-29.3,48.1-76.3,107.5-130,174.5c-99.5,123.6,90.3,230.9,157.3,357.5
			c27.3,51.6,1.6,87.2-38.4,111.5h118c27.5-100.9-113.1-280.3-146.7-394.6c-26-87.9,23.2-176,67-248.9H-249.6z"/>
		
			<linearGradient id="SVGID_7_" gradientUnits="userSpaceOnUse" x1="-719.3755" y1="1053.1522" x2="-75.8451" y2="1053.1522" gradientTransform="matrix(6.123234e-17 -1 1 6.123234e-17 -1287.3005 -141.1711)">
			<stop  offset="0" style="stop-color:#FFF000"/>
			<stop  offset="0" style="stop-color:#F2C89A"/>
			<stop  offset="0" style="stop-color:#F2C89A"/>
			<stop  offset="0.7232" style="stop-color:#F47EBD"/>
			<stop  offset="1" style="stop-color:#2386CD"/>
		</linearGradient>
		<path class="st8" d="M-376.9-148.2C-270.2-64.5-71.8,59.1-109.3,160.3c-74.9,203.1-195.2,249.5-180.3,335h114.9
			c-15.3-35.6-19.2-88.2,14.7-163.7c78.5-175.8,101.8-220.5,4.7-326.2c-54.6-59.3-100.9-108.8-122.8-153.6H-376.9z"/>
		
			<linearGradient id="SVGID_8_" gradientUnits="userSpaceOnUse" x1="-1029.3695" y1="1029.5759" x2="33.7832" y2="1029.5759" gradientTransform="matrix(-0.1633 0.8639 -0.978 -0.1848 622.3404 629.753)">
			<stop  offset="0" style="stop-color:#FFF000"/>
			<stop  offset="0" style="stop-color:#F2C89A"/>
			<stop  offset="0.3687" style="stop-color:#F2C89A"/>
			<stop  offset="0.617" style="stop-color:#F47EBD"/>
			<stop  offset="1" style="stop-color:#2386CD"/>
		</linearGradient>
		<path class="st9" d="M-214.3,477.2c-36.8-9.7-163.3-73.2-191.9-102.2c-8.7-9-32.6-36-29.4-96.6C-422.3,125.5-256.2-50-47.8-155.8
			h-437.3c-58.3,139.7-61,376.9-35,443.9c16,41,37.1,70.2,54.9,92.7c33,38.7,105.3,85.5,123.7,96.4H-214.3z"/>
	</g>
</g>
<g id="Layer_3">
	
		<linearGradient id="SVGID_9_" gradientUnits="userSpaceOnUse" x1="-356.6269" y1="107.5149" x2="299.0598" y2="107.5149" gradientTransform="matrix(0.8137 0.5814 -0.5814 0.8137 126.582 12.4613)">
		<stop  offset="0" style="stop-color:#FFF000"/>
		<stop  offset="0" style="stop-color:#F2C89A"/>
		<stop  offset="0" style="stop-color:#F2C49C"/>
		<stop  offset="0" style="stop-color:#F2C89A"/>
		<stop  offset="0.286" style="stop-color:#F2C39C"/>
		<stop  offset="0.4055" style="stop-color:#F2C09D"/>
		<stop  offset="0.478" style="stop-color:#F2B8A1"/>
		<stop  offset="0.538" style="stop-color:#F3AAA8"/>
		<stop  offset="0.5909" style="stop-color:#F395B2"/>
		<stop  offset="0.6349" style="stop-color:#F47EBD"/>
		<stop  offset="0.7661" style="stop-color:#9E81C4"/>
		<stop  offset="0.8779" style="stop-color:#5C84C9"/>
		<stop  offset="0.9585" style="stop-color:#3385CC"/>
		<stop  offset="1" style="stop-color:#2386CD"/>
	</linearGradient>
	<polygon class="st10" points="81.5,370.8 -106,225 -73.5,-10.2 146.5,-99.6 334,46.2 301.4,281.4 	"/>
	
		<linearGradient id="SVGID_10_" gradientUnits="userSpaceOnUse" x1="-146.738" y1="82.1215" x2="365.7081" y2="82.1215" gradientTransform="matrix(0.8137 0.5814 -0.5814 0.8137 126.582 12.4613)">
		<stop  offset="0" style="stop-color:#FFF000"/>
		<stop  offset="0" style="stop-color:#F2C89A"/>
		<stop  offset="0" style="stop-color:#F2C49C"/>
		<stop  offset="0" style="stop-color:#F2C89A"/>
		<stop  offset="0" style="stop-color:#F2C39C"/>
		<stop  offset="0.2657" style="stop-color:#F2C19D"/>
		<stop  offset="0.4206" style="stop-color:#F2B8A1"/>
		<stop  offset="0.5471" style="stop-color:#F3AAA8"/>
		<stop  offset="0.6576" style="stop-color:#F396B1"/>
		<stop  offset="0.7536" style="stop-color:#F47EBD"/>
		<stop  offset="0.8436" style="stop-color:#9C81C4"/>
		<stop  offset="0.9183" style="stop-color:#5B84C9"/>
		<stop  offset="0.9722" style="stop-color:#3285CC"/>
		<stop  offset="1" style="stop-color:#2386CD"/>
	</linearGradient>
	<polygon class="st11" points="199.8,367.7 53.3,253.8 78.7,69.9 250.7,0 397.2,114 371.7,297.8 	"/>
</g>
<g id="Layer_2">
	
		<linearGradient id="SVGID_11_" gradientUnits="userSpaceOnUse" x1="-312.2511" y1="-17.0252" x2="170.1763" y2="-17.0252" gradientTransform="matrix(0.866 0.5 -0.5 0.866 48.842 117.6487)">
		<stop  offset="0" style="stop-color:#FFF000"/>
		<stop  offset="0" style="stop-color:#F2C89A"/>
		<stop  offset="0" style="stop-color:#F2C89A"/>
		<stop  offset="0" style="stop-color:#F2C89A"/>
		<stop  offset="0" style="stop-color:#F2C49C"/>
		<stop  offset="0" style="stop-color:#F2C39C"/>
		<stop  offset="0.2693" style="stop-color:#F2C59B"/>
		<stop  offset="0.286" style="stop-color:#F2C69B"/>
		<stop  offset="0.3704" style="stop-color:#F2BCA0"/>
		<stop  offset="0.5124" style="stop-color:#F3A2AC"/>
		<stop  offset="0.6691" style="stop-color:#F47EBD"/>
		<stop  offset="0.7016" style="stop-color:#EB7EBE"/>
		<stop  offset="0.7537" style="stop-color:#D47FBF"/>
		<stop  offset="0.8191" style="stop-color:#AE81C2"/>
		<stop  offset="0.8949" style="stop-color:#7883C6"/>
		<stop  offset="0.9788" style="stop-color:#3585CC"/>
		<stop  offset="1" style="stop-color:#2386CD"/>
	</linearGradient>
	<circle class="st12" cx="53.3" cy="100.5" r="174.6"/>
	
		<linearGradient id="SVGID_12_" gradientUnits="userSpaceOnUse" x1="-161.1969" y1="-8.3412" x2="279.7171" y2="-8.3412" gradientTransform="matrix(0.8382 0.5274 -0.5389 0.8565 54.0492 113.3275)">
		<stop  offset="0" style="stop-color:#FFF000"/>
		<stop  offset="0" style="stop-color:#F2C89A"/>
		<stop  offset="0" style="stop-color:#F2C89A"/>
		<stop  offset="0" style="stop-color:#F2C89A"/>
		<stop  offset="0.2223" style="stop-color:#F2C69B"/>
		<stop  offset="0.3332" style="stop-color:#F2BE9F"/>
		<stop  offset="0.4193" style="stop-color:#F3B1A5"/>
		<stop  offset="0.4928" style="stop-color:#F39EAE"/>
		<stop  offset="0.5575" style="stop-color:#F486B9"/>
		<stop  offset="0.5755" style="stop-color:#F47EBD"/>
		<stop  offset="0.6172" style="stop-color:#EC7EBE"/>
		<stop  offset="0.6837" style="stop-color:#D47FBF"/>
		<stop  offset="0.7666" style="stop-color:#AF81C2"/>
		<stop  offset="0.8627" style="stop-color:#7A83C6"/>
		<stop  offset="0.9686" style="stop-color:#3885CB"/>
		<stop  offset="1" style="stop-color:#2386CD"/>
	</linearGradient>
	<path class="st13" d="M292.7,253.6c-47.5,75.5-145.9,99-219.7,52.5S-22.2,160.7,25.3,85.2s145.9-99,219.7-52.5
		S340.2,178.1,292.7,253.6z"/>
	
		<linearGradient id="SVGID_13_" gradientUnits="userSpaceOnUse" x1="80.3919" y1="-144.0123" x2="326.6551" y2="-144.0123" gradientTransform="matrix(0.9131 0.4077 -0.4077 0.9131 49.9738 148.6587)">
		<stop  offset="0" style="stop-color:#FFF000"/>
		<stop  offset="0" style="stop-color:#F2C89A"/>
		<stop  offset="0" style="stop-color:#F2C89A"/>
		<stop  offset="0" style="stop-color:#F2C89A"/>
		<stop  offset="0" style="stop-color:#F2C49C"/>
		<stop  offset="0" style="stop-color:#F2C39C"/>
		<stop  offset="0" style="stop-color:#F2C59B"/>
		<stop  offset="0" style="stop-color:#F2C69B"/>
		<stop  offset="0.1412" style="stop-color:#F2C39C"/>
		<stop  offset="0.2507" style="stop-color:#F2B9A1"/>
		<stop  offset="0.3497" style="stop-color:#F3A9A9"/>
		<stop  offset="0.4418" style="stop-color:#F392B4"/>
		<stop  offset="0.5018" style="stop-color:#F47EBD"/>
		<stop  offset="0.5065" style="stop-color:#F17EBD"/>
		<stop  offset="0.643" style="stop-color:#A981C3"/>
		<stop  offset="0.7654" style="stop-color:#6F83C7"/>
		<stop  offset="0.8694" style="stop-color:#4685CA"/>
		<stop  offset="0.9509" style="stop-color:#2C86CC"/>
		<stop  offset="1" style="stop-color:#2386CD"/>
	</linearGradient>
	<circle class="st14" cx="325.4" cy="113.9" r="89.1"/>
</g>
</svg>
