<?xml version="1.0" encoding="utf-8"?>
<!-- Generator: Adobe Illustrator 24.1.2, SVG Export Plug-In . SVG Version: 6.00 Build 0)  -->
<svg version="1.1" id="Layer_1" xmlns="http://www.w3.org/2000/svg" xmlns:xlink="http://www.w3.org/1999/xlink" x="0px" y="0px"
	 viewBox="0 0 720 159.2" style="enable-background:new 0 0 720 159.2;" xml:space="preserve">
<style type="text/css">
	.st0{fill:url(#SVGID_1_);}
	.st1{fill:url(#SVGID_2_);}
	.st2{fill:url(#SVGID_3_);}
	.st3{fill:url(#SVGID_4_);}
</style>
<g>
	
		<linearGradient id="SVGID_1_" gradientUnits="userSpaceOnUse" x1="0" y1="726.1692" x2="663.1833" y2="726.1692" gradientTransform="matrix(1 0 0 1 0 -630)">
		<stop  offset="0" style="stop-color:#FFF000"/>
		<stop  offset="0" style="stop-color:#F2C89A"/>
		<stop  offset="0.2682" style="stop-color:#F2C89A"/>
		<stop  offset="0.7678" style="stop-color:#F47EBD"/>
		<stop  offset="1" style="stop-color:#2386CD"/>
	</linearGradient>
	<path class="st0" d="M720,33.1c-123.6,2.7-293.1,37.7-500.2,37.7C100.4,70.9,34.9,64.4,0,58.6v100.1
		c45.2,3.2,111.7-10.4,201.5-32.5c125-30.7,280-17.4,438.3,9.2c32.8,5.5,59,7.6,80.2,7.4V33.1z"/>
	
		<linearGradient id="SVGID_2_" gradientUnits="userSpaceOnUse" x1="116.6155" y1="689.555" x2="836.6155" y2="689.555" gradientTransform="matrix(1 0 0 1 0 -630)">
		<stop  offset="0" style="stop-color:#FFF000"/>
		<stop  offset="0" style="stop-color:#F2C89A"/>
		<stop  offset="0" style="stop-color:#F2C89A"/>
		<stop  offset="0.2371" style="stop-color:#F47EBD"/>
		<stop  offset="1" style="stop-color:#2386CD"/>
	</linearGradient>
	<path class="st1" d="M720,70.1c-53.8-13-120.3-33.8-195.2-57.6c-138.3-44.1-258.3,40-400,69.7C67.1,94.3,27.2,82.9,0,65.2v52.3
		c112.9,12.2,313.6-50.1,441.5-65C539.9,41,638.4,62.8,720,82.2V70.1z"/>
	
		<linearGradient id="SVGID_3_" gradientUnits="userSpaceOnUse" x1="-92.7482" y1="706.9911" x2="627.2518" y2="706.9911" gradientTransform="matrix(1 0 0 1 0 -630)">
		<stop  offset="0" style="stop-color:#FFF000"/>
		<stop  offset="0" style="stop-color:#F2C89A"/>
		<stop  offset="0" style="stop-color:#F2C89A"/>
		<stop  offset="0.7232" style="stop-color:#F47EBD"/>
		<stop  offset="1" style="stop-color:#2386CD"/>
	</linearGradient>
	<path class="st2" d="M720,13.7C626.3,61,488,148.9,374.8,132.3C147.6,99.1,95.7,45.8,0,52.4v50.9c39.8-6.8,98.7-8.5,183.1,6.5
		c196.7,34.8,246.7,45.1,365,2.1C614.5,87.7,669.8,67.2,720,57.5V13.7z"/>
	
		<linearGradient id="SVGID_4_" gradientUnits="userSpaceOnUse" x1="-274.1299" y1="715.8369" x2="720.6581" y2="715.8369" gradientTransform="matrix(1 0 0 1 0 -630)">
		<stop  offset="0" style="stop-color:#FFF000"/>
		<stop  offset="0" style="stop-color:#F2C89A"/>
		<stop  offset="0.3687" style="stop-color:#F2C89A"/>
		<stop  offset="0.617" style="stop-color:#F47EBD"/>
		<stop  offset="1" style="stop-color:#2386CD"/>
	</linearGradient>
	<path class="st3" d="M720,14.2c-15.2,5.4-31.3,11.9-48.5,19.8c-125,57.4-241.7,8.2-413.3-13.3C151.7,7.3,56.7,30.6,0,50.3v107.1
		C73.8,118.2,219.3,86,321.5,99.6c215,28.7,306.7-23.6,371.7-55.3c8.3-4.1,17.4-7.9,26.8-11.6V14.2z"/>
</g>
</svg>
