<?xml version="1.0" encoding="utf-8"?>
<!-- Generator: Adobe Illustrator 24.1.2, SVG Export Plug-In . SVG Version: 6.00 Build 0)  -->
<svg version="1.1" id="Layer_1" xmlns="http://www.w3.org/2000/svg" xmlns:xlink="http://www.w3.org/1999/xlink" x="0px" y="0px"
	 viewBox="0 0 318 321.1" style="enable-background:new 0 0 318 321.1;" xml:space="preserve">
<style type="text/css">
	.st0{display:none;}
	.st1{display:inline;}
	.st2{fill:url(#SVGID_1_);}
	.st3{fill:url(#SVGID_2_);}
	.st4{fill:url(#SVGID_3_);}
	.st5{fill:url(#SVGID_4_);}
	.st6{display:none;fill:url(#SVGID_5_);}
	.st7{display:none;fill:url(#SVGID_6_);}
	.st8{display:none;fill:url(#SVGID_7_);}
	.st9{fill:url(#SVGID_8_);}
	.st10{fill:url(#SVGID_9_);}
	.st11{display:inline;fill:url(#SVGID_10_);}
	.st12{display:none;fill:url(#SVGID_11_);}
	.st13{fill:url(#SVGID_12_);}
	.st14{display:none;fill:url(#SVGID_13_);}
</style>
<g id="Layer_1_1_" class="st0">
	<g class="st1">
		
			<linearGradient id="SVGID_1_" gradientUnits="userSpaceOnUse" x1="-1729.7711" y1="-1101.599" x2="-1137.0231" y2="-1101.599" gradientTransform="matrix(6.123234e-17 -1 -1 -6.123234e-17 -1323.1278 -1256.9983)">
			<stop  offset="0" style="stop-color:#FFF000"/>
			<stop  offset="0" style="stop-color:#F2C89A"/>
			<stop  offset="0.2682" style="stop-color:#F2C89A"/>
			<stop  offset="0.7678" style="stop-color:#F47EBD"/>
			<stop  offset="1" style="stop-color:#2386CD"/>
		</linearGradient>
		<path class="st2" d="M-363.8-170.8c6.1,110.5,85.1,262,85.1,447.1c0.2,106.7-14.4,165.3-27.5,196.5h225.9
			c7.2-40.4-23.5-99.8-73.3-180.1C-223,181-193,42.4-132.9-99.1c12.4-29.3,17.2-52.7,16.7-71.7H-363.8z"/>
		
			<linearGradient id="SVGID_2_" gradientUnits="userSpaceOnUse" x1="-1625.5187" y1="-1018.9205" x2="-982.0187" y2="-1018.9205" gradientTransform="matrix(6.123234e-17 -1 -1 -6.123234e-17 -1323.1278 -1256.9983)">
			<stop  offset="0" style="stop-color:#FFF000"/>
			<stop  offset="0" style="stop-color:#F2C89A"/>
			<stop  offset="0" style="stop-color:#F2C89A"/>
			<stop  offset="0.2371" style="stop-color:#F47EBD"/>
			<stop  offset="1" style="stop-color:#2386CD"/>
		</linearGradient>
		<path class="st3" d="M-280.3-170.8c-29.3,48.1-76.3,107.5-130,174.5C-509.8,127.3-320,234.6-253,361.2
			c27.3,51.6,1.6,87.2-38.4,111.5h118c27.6-100.8-113-280.2-146.6-394.5c-26-88,23.2-176,67-249H-280.3z"/>
		
			<linearGradient id="SVGID_3_" gradientUnits="userSpaceOnUse" x1="-1812.6465" y1="-1058.285" x2="-1169.1464" y2="-1058.285" gradientTransform="matrix(6.123234e-17 -1 -1 -6.123234e-17 -1323.1278 -1256.9983)">
			<stop  offset="0" style="stop-color:#FFF000"/>
			<stop  offset="0" style="stop-color:#F2C89A"/>
			<stop  offset="0" style="stop-color:#F2C89A"/>
			<stop  offset="0.7232" style="stop-color:#F47EBD"/>
			<stop  offset="1" style="stop-color:#2386CD"/>
		</linearGradient>
		<path class="st4" d="M-407.6-170.8C-300.9-87.1-102.5,36.6-140,137.7c-74.9,203.1-195.2,249.5-180.3,335h114.9
			c-15.3-35.6-19.2-88.2,14.7-163.7C-112.2,133.3-88.9,88.6-186-17.1c-54.6-59.4-100.8-108.8-122.7-153.7H-407.6z"/>
		
			<linearGradient id="SVGID_4_" gradientUnits="userSpaceOnUse" x1="-1534.2941" y1="474.6896" x2="-478.2806" y2="474.6896" gradientTransform="matrix(-0.1633 0.8639 0.978 0.1848 -952.8782 783.2299)">
			<stop  offset="0" style="stop-color:#FFF000"/>
			<stop  offset="0" style="stop-color:#F2C89A"/>
			<stop  offset="0.3687" style="stop-color:#F2C89A"/>
			<stop  offset="0.617" style="stop-color:#F47EBD"/>
			<stop  offset="1" style="stop-color:#2386CD"/>
		</linearGradient>
		<path class="st5" d="M-180.1,456c-103.1-72.1-104-65.8-212.5-149.1c-41.9-32-109.4-84.8-101.7-144.2
			c9.1-76.9,138.7-233.9,347.1-339.7h-321c-66,114.3-138,344.3-112,411.3c16,41,41.1,82.6,59,105c21.3,28.4,87.4,103.8,104.7,116.7
			H-180.1z"/>
	</g>
	<g class="st1">
		
			<linearGradient id="SVGID_5_" gradientUnits="userSpaceOnUse" x1="-1743.5712" y1="-1132.2991" x2="-1150.8231" y2="-1132.2991" gradientTransform="matrix(6.123234e-17 -1 -1 -6.123234e-17 -1323.1278 -1256.9983)">
			<stop  offset="0" style="stop-color:#FFF000"/>
			<stop  offset="0" style="stop-color:#F2C89A"/>
			<stop  offset="0.2682" style="stop-color:#F2C89A"/>
			<stop  offset="0.7678" style="stop-color:#F47EBD"/>
			<stop  offset="1" style="stop-color:#2386CD"/>
		</linearGradient>
		<path class="st6" d="M-333.1-157C-327-46.5-248,105-248,290.1c0.2,106.7-14.4,165.3-27.5,196.5h225.9
			c7.2-40.4-23.5-99.8-73.3-180.1c-69.3-111.7-39.3-250.3,20.8-391.7c12.4-29.3,17.2-52.7,16.7-71.7h-247.7V-157z"/>
		
			<linearGradient id="SVGID_6_" gradientUnits="userSpaceOnUse" x1="-1639.2479" y1="-1049.6083" x2="-995.7479" y2="-1049.6083" gradientTransform="matrix(6.123234e-17 -1 -1 -6.123234e-17 -1323.1278 -1256.9983)">
			<stop  offset="0" style="stop-color:#FFF000"/>
			<stop  offset="0" style="stop-color:#F2C89A"/>
			<stop  offset="0" style="stop-color:#F2C89A"/>
			<stop  offset="0.2371" style="stop-color:#F47EBD"/>
			<stop  offset="1" style="stop-color:#2386CD"/>
		</linearGradient>
		<path class="st7" d="M-249.6-157c-29.3,48.1-76.3,107.5-130,174.5c-99.5,123.6,90.3,230.9,157.3,357.5
			c27.3,51.6,1.6,87.2-38.4,111.5h118c27.5-100.9-113.1-280.3-146.7-394.6c-26-87.9,23.2-176,67-248.9L-249.6-157L-249.6-157z"/>
		
			<linearGradient id="SVGID_7_" gradientUnits="userSpaceOnUse" x1="-1826.3755" y1="-1088.985" x2="-1182.8755" y2="-1088.985" gradientTransform="matrix(6.123234e-17 -1 -1 -6.123234e-17 -1323.1278 -1256.9983)">
			<stop  offset="0" style="stop-color:#FFF000"/>
			<stop  offset="0" style="stop-color:#F2C89A"/>
			<stop  offset="0" style="stop-color:#F2C89A"/>
			<stop  offset="0.7232" style="stop-color:#F47EBD"/>
			<stop  offset="1" style="stop-color:#2386CD"/>
		</linearGradient>
		<path class="st8" d="M-376.9-157C-270.2-73.3-71.8,50.3-109.3,151.5c-74.9,203.1-195.2,249.5-180.3,335h114.9
			c-15.3-35.6-19.2-88.2,14.7-163.7C-81.5,147-58.2,102.3-155.3-3.4C-209.9-62.7-256.2-112.2-278.1-157L-376.9-157L-376.9-157z"/>
		
			<linearGradient id="SVGID_8_" gradientUnits="userSpaceOnUse" x1="-1543.423" y1="495.2282" x2="-480.2702" y2="495.2282" gradientTransform="matrix(-0.1633 0.8639 0.978 0.1848 -952.8782 783.2299)">
			<stop  offset="0" style="stop-color:#FFF000"/>
			<stop  offset="0" style="stop-color:#F2C89A"/>
			<stop  offset="0.3687" style="stop-color:#F2C89A"/>
			<stop  offset="0.617" style="stop-color:#F47EBD"/>
			<stop  offset="1" style="stop-color:#2386CD"/>
		</linearGradient>
		<path class="st9" d="M-214.3,468.4c-36.8-9.7-163.3-73.2-191.9-102.2c-8.7-9-32.6-36-29.4-96.6
			c13.3-152.9,179.4-328.4,387.8-434.2h-437.3c-58.3,139.7-61,376.9-35,443.9c16,41,37.1,70.2,54.9,92.7
			c33,38.7,105.3,85.5,123.7,96.4L-214.3,468.4L-214.3,468.4z"/>
	</g>
</g>
<g id="Layer_3" class="st0">
	
		<linearGradient id="SVGID_9_" gradientUnits="userSpaceOnUse" x1="-290.4368" y1="757.0035" x2="365.2499" y2="757.0035" gradientTransform="matrix(0.8137 0.5814 0.5814 -0.8137 -429.8984 668.5967)">
		<stop  offset="0" style="stop-color:#FFF000"/>
		<stop  offset="0" style="stop-color:#F2C89A"/>
		<stop  offset="0" style="stop-color:#F2C49C"/>
		<stop  offset="0" style="stop-color:#F2C89A"/>
		<stop  offset="0.286" style="stop-color:#F2C39C"/>
		<stop  offset="0.4055" style="stop-color:#F2C09D"/>
		<stop  offset="0.478" style="stop-color:#F2B8A1"/>
		<stop  offset="0.538" style="stop-color:#F3AAA8"/>
		<stop  offset="0.5909" style="stop-color:#F395B2"/>
		<stop  offset="0.6349" style="stop-color:#F47EBD"/>
		<stop  offset="0.7661" style="stop-color:#9E81C4"/>
		<stop  offset="0.8779" style="stop-color:#5C84C9"/>
		<stop  offset="0.9585" style="stop-color:#3385CC"/>
		<stop  offset="1" style="stop-color:#2386CD"/>
	</linearGradient>
	<polygon class="st10" points="81.5,362 -106,216.2 -73.5,-19 146.5,-108.4 334,37.4 301.4,272.6 	"/>
	
		<linearGradient id="SVGID_10_" gradientUnits="userSpaceOnUse" x1="-80.548" y1="782.4198" x2="431.8982" y2="782.4198" gradientTransform="matrix(0.8137 0.5814 0.5814 -0.8137 -429.8984 668.5967)">
		<stop  offset="0" style="stop-color:#FFF000"/>
		<stop  offset="0" style="stop-color:#F2C89A"/>
		<stop  offset="0" style="stop-color:#F2C49C"/>
		<stop  offset="0" style="stop-color:#F2C89A"/>
		<stop  offset="0" style="stop-color:#F2C39C"/>
		<stop  offset="0.2657" style="stop-color:#F2C19D"/>
		<stop  offset="0.4206" style="stop-color:#F2B8A1"/>
		<stop  offset="0.5471" style="stop-color:#F3AAA8"/>
		<stop  offset="0.6576" style="stop-color:#F396B1"/>
		<stop  offset="0.7536" style="stop-color:#F47EBD"/>
		<stop  offset="0.8436" style="stop-color:#9C81C4"/>
		<stop  offset="0.9183" style="stop-color:#5B84C9"/>
		<stop  offset="0.9722" style="stop-color:#3285CC"/>
		<stop  offset="1" style="stop-color:#2386CD"/>
	</linearGradient>
	<polygon class="st11" points="199.8,358.9 53.3,245 78.7,61.1 250.7,-8.8 397.2,105.2 371.7,289 	"/>
</g>
<g id="Layer_2_1_">
	
		<linearGradient id="SVGID_11_" gradientUnits="userSpaceOnUse" x1="-235.4826" y1="801.8263" x2="246.9448" y2="801.8263" gradientTransform="matrix(0.866 0.5 0.5 -0.866 -410.0124 750.0271)">
		<stop  offset="0" style="stop-color:#FFF000"/>
		<stop  offset="0" style="stop-color:#F2C89A"/>
		<stop  offset="0" style="stop-color:#F2C89A"/>
		<stop  offset="0" style="stop-color:#F2C89A"/>
		<stop  offset="0" style="stop-color:#F2C49C"/>
		<stop  offset="0" style="stop-color:#F2C39C"/>
		<stop  offset="0.2693" style="stop-color:#F2C59B"/>
		<stop  offset="0.286" style="stop-color:#F2C69B"/>
		<stop  offset="0.3704" style="stop-color:#F2BCA0"/>
		<stop  offset="0.5124" style="stop-color:#F3A2AC"/>
		<stop  offset="0.6691" style="stop-color:#F47EBD"/>
		<stop  offset="0.7016" style="stop-color:#EB7EBE"/>
		<stop  offset="0.7537" style="stop-color:#D47FBF"/>
		<stop  offset="0.8191" style="stop-color:#AE81C2"/>
		<stop  offset="0.8949" style="stop-color:#7883C6"/>
		<stop  offset="0.9788" style="stop-color:#3585CC"/>
		<stop  offset="1" style="stop-color:#2386CD"/>
	</linearGradient>
	<circle class="st12" cx="53.3" cy="91.7" r="174.6"/>
	
		<linearGradient id="SVGID_12_" gradientUnits="userSpaceOnUse" x1="-79.5785" y1="823.339" x2="361.3355" y2="823.339" gradientTransform="matrix(0.8382 0.5274 0.5389 -0.8565 -453.5699 759.5071)">
		<stop  offset="0" style="stop-color:#FFF000"/>
		<stop  offset="0" style="stop-color:#F2C89A"/>
		<stop  offset="0" style="stop-color:#F2C89A"/>
		<stop  offset="0" style="stop-color:#F2C89A"/>
		<stop  offset="0.2223" style="stop-color:#F2C69B"/>
		<stop  offset="0.3332" style="stop-color:#F2BE9F"/>
		<stop  offset="0.4193" style="stop-color:#F3B1A5"/>
		<stop  offset="0.4928" style="stop-color:#F39EAE"/>
		<stop  offset="0.5575" style="stop-color:#F486B9"/>
		<stop  offset="0.5755" style="stop-color:#F47EBD"/>
		<stop  offset="0.6172" style="stop-color:#EC7EBE"/>
		<stop  offset="0.6837" style="stop-color:#D47FBF"/>
		<stop  offset="0.7666" style="stop-color:#AF81C2"/>
		<stop  offset="0.8627" style="stop-color:#7A83C6"/>
		<stop  offset="0.9686" style="stop-color:#3885CB"/>
		<stop  offset="1" style="stop-color:#2386CD"/>
	</linearGradient>
	<path class="st13" d="M292.7,244.8c-47.5,75.5-145.9,99-219.7,52.5S-22.2,151.9,25.3,76.4s145.9-99,219.7-52.5
		S340.2,169.3,292.7,244.8z"/>
	
		<linearGradient id="SVGID_13_" gradientUnits="userSpaceOnUse" x1="159.8008" y1="842.6458" x2="406.064" y2="842.6458" gradientTransform="matrix(0.9131 0.4077 0.4077 -0.9131 -307.3586 745.3593)">
		<stop  offset="0" style="stop-color:#FFF000"/>
		<stop  offset="0" style="stop-color:#F2C89A"/>
		<stop  offset="0" style="stop-color:#F2C89A"/>
		<stop  offset="0" style="stop-color:#F2C89A"/>
		<stop  offset="0" style="stop-color:#F2C49C"/>
		<stop  offset="0" style="stop-color:#F2C39C"/>
		<stop  offset="0" style="stop-color:#F2C59B"/>
		<stop  offset="0" style="stop-color:#F2C69B"/>
		<stop  offset="0.1412" style="stop-color:#F2C39C"/>
		<stop  offset="0.2507" style="stop-color:#F2B9A1"/>
		<stop  offset="0.3497" style="stop-color:#F3A9A9"/>
		<stop  offset="0.4418" style="stop-color:#F392B4"/>
		<stop  offset="0.5018" style="stop-color:#F47EBD"/>
		<stop  offset="0.5065" style="stop-color:#F17EBD"/>
		<stop  offset="0.643" style="stop-color:#A981C3"/>
		<stop  offset="0.7654" style="stop-color:#6F83C7"/>
		<stop  offset="0.8694" style="stop-color:#4685CA"/>
		<stop  offset="0.9509" style="stop-color:#2C86CC"/>
		<stop  offset="1" style="stop-color:#2386CD"/>
	</linearGradient>
	<circle class="st14" cx="325.4" cy="105.1" r="89.1"/>
</g>
</svg>
