<?xml version="1.0" encoding="utf-8"?>
<!-- Generator: Adobe Illustrator 24.1.2, SVG Export Plug-In . SVG Version: 6.00 Build 0)  -->
<svg version="1.1" xmlns="http://www.w3.org/2000/svg" xmlns:xlink="http://www.w3.org/1999/xlink" x="0px" y="0px"
	 viewBox="0 0 549.4 549.1" style="enable-background:new 0 0 549.4 549.1;" xml:space="preserve">
<style type="text/css">
	.st0{fill:#FFFFFF;}
	.st1{fill:url(#SVGID_1_);}
	.st2{fill:url(#SVGID_2_);}
	.st3{fill:url(#SVGID_3_);}
	.st4{fill:url(#SVGID_4_);}
	.st5{fill:#E95E65;}
</style>
<g id="Layer_2">
	<g id="Layer_3_1_">
		<g>
			<g>
				<path class="st0" d="M548.4,108.1c-0.2-0.6-0.4-1.3-0.8-1.8c-0.5-1.4-1.2-2.7-1.9-3.9c-0.4-0.6-0.8-1.3-1.3-1.8
					c-0.9-1.2-1.9-2.1-3-3.1c-0.5-0.4-1-1-1.5-1.4c-0.1-0.1-0.3-0.2-0.4-0.3c-1.6-1.1-3.3-2-5.1-2.7c-0.1,0-0.1-0.1-0.2-0.1
					L282.6,1.4c-5-1.8-10.6-1.8-15.7,0L15.2,92.9c-0.1,0-0.1,0.1-0.2,0.1c-1.8,0.6-3.5,1.6-5.1,2.7c-0.1,0.1-0.3,0.2-0.4,0.3
					c-0.5,0.4-1,0.9-1.5,1.4c-1.1,1-2.1,2-3,3.1c-0.4,0.5-0.9,1.2-1.3,1.8c-0.8,1.3-1.4,2.5-1.9,3.9c-0.2,0.6-0.5,1.2-0.8,1.8
					c-0.6,2-1,4.2-1,6.3v320.4c0,9.7,6,18.2,15,21.6l251.7,91.5c0.1,0,0.3,0,0.5,0.1c2.4,0.8,4.8,1.3,7.3,1.3c2.5,0,4.9-0.4,7.3-1.3
					c0.1-0.1,0.3,0,0.5-0.1l252-91.5c9-3.3,15-11.9,15-21.6V114.4C549.4,112.2,549,110.1,548.4,108.1z M274.8,181.6L90.1,114.4
					l184.7-67.3l184.7,67.1L274.8,181.6z M503.6,418.7l-205.9,74.9V221.9L503.6,147V418.7z"/>
			</g>
		</g>
	</g>
</g>
<g id="Layer_1">
	<g id="Layer_1_1_">
	</g>
	<g id="Layer_2_1_">
		<g>
			<g>
				<g>
					
						<linearGradient id="SVGID_1_" gradientUnits="userSpaceOnUse" x1="391.2907" y1="426.5473" x2="391.2907" y2="38.2473" gradientTransform="matrix(1 0 0 -1 0 549.0049)">
						<stop  offset="0" style="stop-color:#F47EBD"/>
						<stop  offset="1" style="stop-color:#F2C89A"/>
					</linearGradient>
					<path class="st1" d="M274,211.9v298.9l220.6-80.2c8.4-3.1,14-11.1,14-20.1v-288L274,211.9z"/>
					
						<linearGradient id="SVGID_2_" gradientUnits="userSpaceOnUse" x1="391.6907" y1="430.8473" x2="391.6907" y2="42.5473" gradientTransform="matrix(1 0 0 -1 0 549.0049)">
						<stop  offset="0" style="stop-color:#F47EBD"/>
						<stop  offset="1" style="stop-color:#F2C89A"/>
					</linearGradient>
					<path class="st2" d="M274.4,207.6v298.9L495,426.3c8.4-3.1,14-11.1,14-20.1v-288L274.4,207.6z"/>
					
						<linearGradient id="SVGID_3_" gradientUnits="userSpaceOnUse" x1="391.9907" y1="434.5473" x2="391.9907" y2="46.2473" gradientTransform="matrix(1 0 0 -1 0 549.0049)">
						<stop  offset="0" style="stop-color:#F47EBD"/>
						<stop  offset="1" style="stop-color:#F2C89A"/>
					</linearGradient>
					<path class="st3" d="M274.7,203.9v298.9l220.6-80.2c8.4-3.1,14-11.1,14-20.1v-288L274.7,203.9z"/>
					
						<linearGradient id="SVGID_4_" gradientUnits="userSpaceOnUse" x1="223.0407" y1="525.5073" x2="337.5407" y2="327.1874" gradientTransform="matrix(1 0 0 -1 0 549.0049)">
						<stop  offset="0" style="stop-color:#2A9BC5"/>
						<stop  offset="1" style="stop-color:#2E58A6"/>
					</linearGradient>
					<path class="st4" d="M287.6,44.8c-4.7-1.6-9.9-1.6-14.6,0L51.3,122.7l229,84.3l229-84.3L287.6,44.8z"/>
					<path class="st5" d="M18.4,423.9c0,9,5.6,17,14,20.1L253,524.2V225.3L18.4,135.9V423.9z"/>
				</g>
			</g>
		</g>
	</g>
	<g id="Layer_3">
		<g>
			<g>
				<path d="M529.5,119.4c-0.2-0.6-0.4-1.2-0.7-1.7c-0.5-1.3-1.1-2.5-1.8-3.6c-0.4-0.6-0.7-1.2-1.2-1.7c-0.8-1.1-1.8-2-2.8-2.9
					c-0.5-0.4-0.9-0.9-1.4-1.3c-0.1-0.1-0.3-0.2-0.4-0.3c-1.5-1-3.1-1.9-4.8-2.5c-0.1,0-0.1-0.1-0.2-0.1L281.7,19.9
					c-4.7-1.7-9.9-1.7-14.6,0L32.4,105.2c-0.1,0-0.1,0.1-0.2,0.1c-1.7,0.6-3.3,1.5-4.8,2.5c-0.1,0.1-0.3,0.2-0.4,0.3
					c-0.5,0.4-0.9,0.8-1.4,1.3c-1,0.9-2,1.9-2.8,2.9c-0.4,0.5-0.8,1.1-1.2,1.7c-0.7,1.2-1.3,2.3-1.8,3.6c-0.2,0.6-0.5,1.1-0.7,1.7
					c-0.6,1.9-0.9,3.9-0.9,5.9v298.7c0,9,5.6,17,14,20.1l234.7,85.3c0.1,0,0.3,0,0.5,0.1c2.2,0.7,4.5,1.2,6.8,1.2
					c2.3,0,4.6-0.4,6.8-1.2c0.1-0.1,0.3,0,0.5-0.1L516.4,444c8.4-3.1,14-11.1,14-20.1V125.3C530.4,123.2,530,121.3,529.5,119.4z
					 M274.4,187.9l-172.2-62.6l172.2-62.7l172.2,62.6L274.4,187.9z M487.7,409l-192,69.8V225.5l192-69.8V409z"/>
			</g>
		</g>
	</g>
</g>
</svg>
