<?xml version="1.0" encoding="utf-8"?>
<!-- Generator: Adobe Illustrator 24.1.2, SVG Export Plug-In . SVG Version: 6.00 Build 0)  -->
<svg version="1.1" xmlns="http://www.w3.org/2000/svg" xmlns:xlink="http://www.w3.org/1999/xlink" x="0px" y="0px"
	 viewBox="0 0 512 512" style="enable-background:new 0 0 512 512;" xml:space="preserve">
<style type="text/css">
	.st0{fill:url(#SVGID_1_);}
	.st1{fill:url(#SVGID_2_);}
	.st2{fill:#E95E65;}
</style>
<g id="Layer_1">
</g>
<g id="Layer_2">
	<g>
		<g>
			<g>
				<linearGradient id="SVGID_1_" gradientUnits="userSpaceOnUse" x1="373.333" y1="104.5227" x2="373.333" y2="492.8108">
					<stop  offset="0" style="stop-color:#F2C89A"/>
					<stop  offset="1" style="stop-color:#F2B295"/>
				</linearGradient>
				<path class="st0" d="M256,193.9v298.9l220.6-80.2c8.4-3.1,14-11.1,14-20.1v-288L256,193.9z"/>
				<linearGradient id="SVGID_2_" gradientUnits="userSpaceOnUse" x1="204.3723" y1="4.8253" x2="318.8897" y2="203.1754">
					<stop  offset="0" style="stop-color:#F27DB5"/>
					<stop  offset="1" style="stop-color:#F47EBD"/>
				</linearGradient>
				<path class="st1" d="M268.9,23.4c-4.7-1.7-9.9-1.7-14.6,0L32.6,104l229,87.3l229-87.3L268.9,23.4z"/>
				<path class="st2" d="M0,405.3c0,9,5.6,17,14,20.1l220.6,80.2V206.7L0,117.3V405.3z"/>
			</g>
		</g>
	</g>
</g>
<g id="Layer_3">
	<g>
		<g>
			<path d="M511.1,100.8c-0.2-0.6-0.4-1.2-0.7-1.7c-0.5-1.3-1.1-2.5-1.8-3.6c-0.4-0.6-0.7-1.2-1.2-1.7c-0.8-1.1-1.8-2-2.8-2.9
				c-0.5-0.4-0.9-0.9-1.4-1.3c-0.1-0.1-0.3-0.2-0.4-0.3c-1.5-1-3.1-1.9-4.8-2.5c-0.1,0-0.1-0.1-0.2-0.1L263.3,1.3
				c-4.7-1.7-9.9-1.7-14.6,0L14,86.6c-0.1,0-0.1,0.1-0.2,0.1c-1.7,0.6-3.3,1.5-4.8,2.5c-0.1,0.1-0.3,0.2-0.4,0.3
				c-0.5,0.4-0.9,0.8-1.4,1.3c-1,0.9-2,1.9-2.8,2.9c-0.4,0.5-0.8,1.1-1.2,1.7c-0.7,1.2-1.3,2.3-1.8,3.6c-0.2,0.6-0.5,1.1-0.7,1.7
				c-0.6,1.9-0.9,3.9-0.9,5.9v298.7c0,9,5.6,17,14,20.1l234.7,85.3c0.1,0,0.3,0,0.5,0.1c2.2,0.7,4.5,1.2,6.8,1.2s4.6-0.4,6.8-1.2
				c0.1-0.1,0.3,0,0.5-0.1L498,425.4c8.4-3.1,14-11.1,14-20.1V106.7C512,104.6,511.6,102.7,511.1,100.8z M256,169.3L83.8,106.7
				L256,44l172.2,62.6L256,169.3z M469.3,390.4l-192,69.8V206.9l192-69.8V390.4z"/>
		</g>
	</g>
	<g>
	</g>
	<g>
	</g>
	<g>
	</g>
	<g>
	</g>
	<g>
	</g>
	<g>
	</g>
</g>
</svg>
