<?xml version="1.0" encoding="utf-8"?>
<!-- Generator: Adobe Illustrator 24.1.2, SVG Export Plug-In . SVG Version: 6.00 Build 0)  -->
<svg version="1.1" xmlns="http://www.w3.org/2000/svg" xmlns:xlink="http://www.w3.org/1999/xlink" x="0px" y="0px"
	 viewBox="0 0 512 512" style="enable-background:new 0 0 512 512;" xml:space="preserve">
<style type="text/css">
	.st0{fill:#F0C76C;stroke:#000000;stroke-miterlimit:10;}
	.st1{fill:#F76864;stroke:#000000;stroke-miterlimit:10;}
	.st2{fill:#CEE965;stroke:#000000;stroke-miterlimit:10;}
</style>
<g id="Layer_1">
	<g>
		<g>
			<path d="M512,106.7c0-0.5,0-1-0.1-1.5c0-0.2,0-0.3,0-0.5c0-0.3-0.1-0.6-0.1-0.9c0-0.2-0.1-0.5-0.1-0.7c0-0.2-0.1-0.4-0.1-0.6
				c-0.1-0.3-0.1-0.6-0.2-0.9c0-0.1,0-0.2-0.1-0.3c-1.5-5.8-5.4-11.1-11.8-14c-0.5-0.2-1-0.4-1.5-0.6c0,0,0,0,0,0l-0.1,0
				c-0.2-0.1-0.3-0.1-0.5-0.2L263.3,1.3c-4.7-1.7-9.9-1.7-14.6,0L14.6,86.4c-0.2,0.1-0.3,0.1-0.5,0.2l-0.1,0c0,0,0,0,0,0
				c-0.5,0.2-1,0.4-1.5,0.6c-6.4,2.9-10.3,8.1-11.8,14c0,0.1,0,0.2-0.1,0.3c-0.1,0.3-0.1,0.6-0.2,0.9c0,0.2-0.1,0.4-0.1,0.7
				c0,0.2-0.1,0.5-0.1,0.7c0,0.3-0.1,0.6-0.1,0.9c0,0.2,0,0.3,0,0.5c0,0.5-0.1,1-0.1,1.5v298.7c0,9,5.6,17,14,20l234.7,85.3
				c0,0,0,0,0,0c1.6,0.6,3.4,1,5.1,1.2c0,0,0.1,0,0.1,0c0.3,0,0.7,0.1,1,0.1c0.1,0,0.2,0,0.4,0c0.2,0,0.5,0,0.7,0s0.5,0,0.7,0
				c0.1,0,0.2,0,0.4,0c0.3,0,0.7,0,1-0.1c0,0,0.1,0,0.1,0c1.8-0.2,3.5-0.6,5.1-1.2c0,0,0,0,0,0L498,425.4c8.4-3.1,14-11.1,14-20
				L512,106.7C512,106.7,512,106.7,512,106.7z M234.7,206.9v42.5L42.7,197v-59.9L234.7,206.9z M42.7,241.3l192,52.4v62.4l-192-52.4
				C42.7,303.7,42.7,241.3,42.7,241.3z M256,44l172.2,62.6L256,169.3L83.8,106.7L256,44z M42.7,347.9l192,52.4v59.9l-192-69.8
				C42.7,390.4,42.7,347.9,42.7,347.9z M469.3,390.4l-192,69.8V206.9L406,160.2l63.3-23V390.4z"/>
		</g>
	</g>
</g>
<g id="Layer_2">
	<polygon class="st0" points="42.7,303.7 234.7,356.1 234.7,293.6 42.7,241.3 	"/>
	<polygon class="st1" points="42.7,347.9 234.7,400.3 234.7,460.2 42.7,390.4 	"/>
	<polygon class="st2" points="42.7,137.1 234.7,206.9 234.7,249.4 42.7,197 	"/>
	<g>
	</g>
	<g>
	</g>
	<g>
	</g>
	<g>
	</g>
	<g>
	</g>
	<g>
	</g>
</g>
</svg>
